# xmcd CD database file
#
# Track frame offsets:
#	150
#	18776
#	34791
#	51555
#	69786
#	87082
#	106446
#	127464
#	144747
#	162548
#	181979
#	195448
#	211339
#	229311
#	238103
#
# Disc length: 3370 seconds
#
# Revision: 0
# Processed by: cddbd v1.4PL0 Copyright (c) Steve Scherf et al.
# Submitted via: CDex 1.51
#
DISCID=d80d280f
DTITLE=Presuntos Implicados - Alma De Blues (+4 Temas)
DYEAR=1989
DGENRE=Blues
TTITLE0=Gente
TTITLE1=Esperaré
TTITLE2=La Mujer Que Mueve El Mundo
TTITLE3=Todas Las Flores
TTITLE4=Me Das El Mar
TTITLE5=Alma De Blues
TTITLE6=Río Po
TTITLE7=La Futura Promesa
TTITLE8=No Hay Palabras
TTITLE9=Encadenada
TTITLE10=La Noche
TTITLE11=No Hay Rumor
TTITLE12=Cada Historia
TTITLE13=Guitarra Y Voz
TTITLE14=Asoma El Llanto
EXTD=YEAR: 1989
EXTT0=
EXTT1=
EXTT2=
EXTT3=
EXTT4=
EXTT5=
EXTT6=
EXTT7=
EXTT8=
EXTT9=
EXTT10=
EXTT11=
EXTT12=
EXTT13=
EXTT14=
PLAYORDER=
